<svg xmlns="http://www.w3.org/2000/svg" width="56.236" height="79.98" viewBox="0 0 56.236 79.98">
  <g id="Group_3247" data-name="Group 3247" transform="translate(-76)">
    <path id="Path_2843" data-name="Path 2843" d="M104.118,0A28.123,28.123,0,0,0,80.2,42.9l22.32,35.969a2.343,2.343,0,0,0,1.991,1.108h.019a2.343,2.343,0,0,0,1.992-1.139L128.27,42.524A28.124,28.124,0,0,0,104.118,0Zm20.13,40.118L104.473,73.136,84.18,40.435a23.447,23.447,0,1,1,40.068-.317Z" fill="#bd8893"/>
    <g id="Group_3241" data-name="Group 3241" transform="translate(90.059 14.059)">
      <g id="Group_3240" data-name="Group 3240">
        <path id="Path_2844" data-name="Path 2844" d="M180.059,90a14.059,14.059,0,1,0,14.059,14.059A14.075,14.075,0,0,0,180.059,90Zm0,23.463a9.4,9.4,0,1,1,9.388-9.4A9.411,9.411,0,0,1,180.059,113.463Z" transform="translate(-166 -90)" fill="#bd8893"/>
      </g>
    </g>
  </g>
</svg>
