<svg xmlns="http://www.w3.org/2000/svg" width="28.721" height="30.604" viewBox="0 0 28.721 30.604">
  <path id="Path_2705" data-name="Path 2705" d="M43.9,6.619,30.284.043a.44.44,0,0,0-.382,0L16.28,6.619a.439.439,0,0,0-.248.4v15.97a.439.439,0,0,0,.248.4L29.9,29.956a.439.439,0,0,0,.382,0L43.9,23.38a.439.439,0,0,0,.248-.4V7.015A.44.44,0,0,0,43.9,6.619ZM30.093.927,42.7,7.015,39.047,8.779a.436.436,0,0,0-.074-.047L26.448,2.686ZM25.456,3.183,38.048,9.262l-2.579,1.245L22.882,4.431ZM38.343,10.1v4.6l-2.409,1.163v-4.6Zm4.932,12.613L30.532,28.86V13.866L33.571,12.4a.439.439,0,0,0-.382-.791l-3.1,1.5-1.219-.588a.439.439,0,1,0-.382.791l1.161.561V28.86L16.911,22.708V7.715l9.7,4.684A.439.439,0,0,0,27,11.608L17.482,7.015l4.366-2.107,13.2,6.373.006.008v5.273a.439.439,0,0,0,.631.4l3.288-1.587a.439.439,0,0,0,.248-.4v-5.3l4.053-1.957V22.709Z" transform="translate(-15.732 0.305)" fill="#bd8893" stroke="#bd8893" stroke-width="0.6"/>
</svg>
