<svg xmlns="http://www.w3.org/2000/svg" width="88.64" height="80" viewBox="0 0 88.64 80">
  <g id="Group_3246" data-name="Group 3246" transform="translate(0 -0.501)">
    <path id="Path_2840" data-name="Path 2840" d="M79.571,235.526,63.25,241.137a6.908,6.908,0,0,0-6.812-8.152H45.227a1.732,1.732,0,0,1-.85-.223l-9.147-5.144a12.129,12.129,0,0,0-5.943-1.558H17.014a5.2,5.2,0,0,0-4.9-3.462H1.731A1.731,1.731,0,0,0,0,224.329V255.49a1.731,1.731,0,0,0,1.731,1.731H12.119a5.2,5.2,0,0,0,4.847-3.332,15.8,15.8,0,0,1,5.652,1.678L31.672,261a22.07,22.07,0,0,0,20.488,1.169l32.313-14.228a6.674,6.674,0,0,0-4.9-12.416ZM13.85,252.036a1.733,1.733,0,0,1-1.731,1.723H3.463v-27.7h8.656a1.733,1.733,0,0,1,1.731,1.731Zm69.307-7.3-.055.022L50.736,259.013a18.607,18.607,0,0,1-17.282-.982L24.4,252.6a19.089,19.089,0,0,0-7.087-2.155V229.522H29.287a8.661,8.661,0,0,1,4.245,1.112l9.147,5.144a5.2,5.2,0,0,0,2.548.668H56.438a3.463,3.463,0,0,1,0,6.925h-17.6a1.731,1.731,0,1,0,0,3.462h17.6a6.912,6.912,0,0,0,3.245-.811l21.05-7.236a3.214,3.214,0,1,1,2.424,5.952Zm0,0" transform="translate(0 -183.646)" fill="#bd8893"/>
    <path id="Path_2841" data-name="Path 2841" d="M182.68,42.493a1.733,1.733,0,0,0,2.268,0c14.125-12.242,22.863-18.437,22.863-28.064C207.811,6.812,202.419.5,194.844.5c-4.975,0-8.784,2.867-11.238,7.17C181.158,3.378,177.353.5,172.371.5a12.787,12.787,0,0,0-12.351,9.573,1.731,1.731,0,1,0,3.323.974,9.394,9.394,0,0,1,9.029-7.085c4.939,0,8.4,4.386,9.567,8.469a1.731,1.731,0,0,0,3.337,0c.024-.085,2.428-8.469,9.569-8.469,5.418,0,9.5,4.5,9.5,10.465,0,7.7-7.528,13.254-20.536,24.469-7.925-6.806-14.221-11.6-17.8-16.283a1.731,1.731,0,1,0-2.752,2.1C167.295,30,174.1,35.059,182.68,42.493Zm0,0" transform="translate(-132.258)" fill="#bd8893"/>
  </g>
</svg>
