<svg xmlns="http://www.w3.org/2000/svg" width="80.984" height="80.984" viewBox="0 0 80.984 80.984">
  <g id="Group_3245" data-name="Group 3245" transform="translate(0.5 0.5)">
    <path id="Path_2845" data-name="Path 2845" d="M75.816,47.915a9.615,9.615,0,0,0,0-15.847,2.484,2.484,0,0,1-.838-3.127,9.615,9.615,0,0,0-7.923-13.724,2.484,2.484,0,0,1-2.289-2.289A9.615,9.615,0,0,0,51.042,5.006a2.484,2.484,0,0,1-3.127-.838,9.615,9.615,0,0,0-15.847,0,2.483,2.483,0,0,1-3.127.838,9.615,9.615,0,0,0-13.724,7.923,2.484,2.484,0,0,1-2.289,2.289A9.615,9.615,0,0,0,5.006,28.942a2.484,2.484,0,0,1-.838,3.127,9.614,9.614,0,0,0,0,15.847,2.484,2.484,0,0,1,.838,3.127,9.615,9.615,0,0,0,7.923,13.724,2.484,2.484,0,0,1,2.289,2.289,9.693,9.693,0,0,0,1.394,4.282A1.169,1.169,0,1,0,18.6,70.114a7.341,7.341,0,0,1-1.056-3.245,4.811,4.811,0,0,0-4.434-4.434,7.277,7.277,0,0,1-6-10.388A4.811,4.811,0,0,0,5.494,45.99a7.277,7.277,0,0,1,0-12,4.811,4.811,0,0,0,1.623-6.057,7.277,7.277,0,0,1,6-10.388,4.811,4.811,0,0,0,4.434-4.434,7.277,7.277,0,0,1,10.388-6,4.811,4.811,0,0,0,6.057-1.623,7.277,7.277,0,0,1,12,0,4.811,4.811,0,0,0,6.057,1.623,7.277,7.277,0,0,1,10.388,6,4.811,4.811,0,0,0,4.434,4.434,7.277,7.277,0,0,1,6,10.388,4.811,4.811,0,0,0,1.623,6.057,7.277,7.277,0,0,1,0,12,4.811,4.811,0,0,0-1.623,6.057,7.277,7.277,0,0,1-6,10.388,4.811,4.811,0,0,0-4.434,4.434,7.277,7.277,0,0,1-10.388,6,4.811,4.811,0,0,0-6.057,1.623,7.277,7.277,0,0,1-12,0,4.811,4.811,0,0,0-6.057-1.623,7.3,7.3,0,0,1-5.732.231,1.169,1.169,0,1,0-.837,2.183,9.653,9.653,0,0,0,7.574-.3,2.483,2.483,0,0,1,3.127.838,9.614,9.614,0,0,0,15.846,0,2.483,2.483,0,0,1,3.127-.838,9.615,9.615,0,0,0,13.724-7.923,2.484,2.484,0,0,1,2.289-2.289,9.615,9.615,0,0,0,7.923-13.724,2.483,2.483,0,0,1,.837-3.127Z" fill="#bd8893" stroke="#bd8893" stroke-width="1"/>
    <path id="Path_2846" data-name="Path 2846" d="M132.077,103.69a28.156,28.156,0,1,0-28.156,28.156A28.188,28.188,0,0,0,132.077,103.69Zm-53.975,0a25.818,25.818,0,1,1,25.818,25.819A25.848,25.848,0,0,1,78.1,103.69Z" transform="translate(-63.93 -63.734)" fill="#bd8893" stroke="#bd8893" stroke-width="1"/>
    <path id="Path_2847" data-name="Path 2847" d="M179.338,165.444a5.1,5.1,0,0,0-7.195.468l-3.867,4.468a1.169,1.169,0,1,0,1.768,1.53l3.861-4.461a2.756,2.756,0,1,1,4.133,3.646l-16,18.43a2.757,2.757,0,0,1-2.069.936h-.018a2.754,2.754,0,0,1-2.075-.962l-7.861-9.171a2.756,2.756,0,1,1,4.185-3.587l4.92,5.74a1.169,1.169,0,0,0,.885.408h0a1.168,1.168,0,0,0,.884-.4l5.584-6.452a1.169,1.169,0,1,0-1.768-1.53l-4.7,5.426-4.036-4.709a5.093,5.093,0,1,0-7.735,6.63l7.861,9.171a5.088,5.088,0,0,0,3.832,1.779h.036a5.1,5.1,0,0,0,3.83-1.735l16-18.43A5.1,5.1,0,0,0,179.338,165.444Z" transform="translate(-124.049 -138.53)" fill="#bd8893" stroke="#bd8893" stroke-width="1"/>
  </g>
</svg>
