<svg xmlns="http://www.w3.org/2000/svg" width="29.707" height="30.603" viewBox="0 0 29.707 30.603">
  <g id="Group_3245" data-name="Group 3245" transform="translate(0.305 0.303)">
    <g id="Group_3222" data-name="Group 3222" transform="translate(-0.002 0.037)">
      <g id="Group_3221" data-name="Group 3221" transform="translate(0)">
        <path id="Path_2708" data-name="Path 2708" d="M23.9,3.5a.43.43,0,0,0-.606.054,26.447,26.447,0,0,0-1.624,2.173,14.1,14.1,0,0,0-1.06-3.653,1.025,1.025,0,0,0-1.177-.552A6.655,6.655,0,0,0,16.917,2.9,7.1,7.1,0,0,0,12.461.652a1.018,1.018,0,0,0-.959.477,6.934,6.934,0,0,0-.9,4.5,8.534,8.534,0,0,0-2.122.13A1.024,1.024,0,0,0,7.705,7a8.478,8.478,0,0,0,.823,2.18.43.43,0,0,0,.767-.39A7.8,7.8,0,0,1,8.541,6.8a.163.163,0,0,1,.125-.2,7.665,7.665,0,0,1,2.393-.064.43.43,0,0,0,.479-.506,6.172,6.172,0,0,1,.694-4.443.161.161,0,0,1,.153-.076,6.012,6.012,0,0,1,4.127,2.269.43.43,0,0,0,.641.065,6.2,6.2,0,0,1,2.5-1.491.163.163,0,0,1,.188.088,12.979,12.979,0,0,1,1.1,4.574.43.43,0,0,0,.8.21A27.385,27.385,0,0,1,23.959,4.1.43.43,0,0,0,23.9,3.5Z" transform="translate(-7.676 -0.648)" fill="#bd8893" stroke="#bd8893" stroke-width="0.6"/>
      </g>
    </g>
    <g id="Group_3224" data-name="Group 3224" transform="translate(17.535)">
      <g id="Group_3223" data-name="Group 3223" transform="translate(0 0)">
        <path id="Path_2709" data-name="Path 2709" d="M311.857,19.668a6.855,6.855,0,0,0,1.386-2.579,1.056,1.056,0,0,0-.552-1.2,13.841,13.841,0,0,0-3.653-1.084,19.353,19.353,0,0,0,4.929-4.634,1.06,1.06,0,0,0-.334-1.508,11.08,11.08,0,0,0-1.912-.827,9.495,9.495,0,0,0,1.5-5.94A1.038,1.038,0,0,0,312.3.956a8.973,8.973,0,0,0-5.807,1.53A11.562,11.562,0,0,0,305.685.53a1.011,1.011,0,0,0-1.474-.342,9.456,9.456,0,0,0-1.5,1.3.447.447,0,0,0,0,.622.423.423,0,0,0,.608,0l.4-.4a11.182,11.182,0,0,1,.988-.8.161.161,0,0,1,.235.055,10.961,10.961,0,0,1,.9,2.339.436.436,0,0,0,.272.3.422.422,0,0,0,.4-.059,8.313,8.313,0,0,1,5.712-1.714.165.165,0,0,1,.145.149,8.771,8.771,0,0,1-1.675,5.843.448.448,0,0,0-.058.406.434.434,0,0,0,.294.278,10.475,10.475,0,0,1,2.287.917.169.169,0,0,1,.053.24,20.292,20.292,0,0,1-5.724,5.082.444.444,0,0,0-.189.486.432.432,0,0,0,.4.327,12.733,12.733,0,0,1,4.574,1.12.168.168,0,0,1,.088.192,6.378,6.378,0,0,1-1.491,2.557.446.446,0,0,0-.112.343c.031.31.229.276.761.821a6.672,6.672,0,0,1,1.685,3.713.167.167,0,0,1-.076.156,6.051,6.051,0,0,1-4.443.709.435.435,0,0,0-.506.49,8.043,8.043,0,0,1-.064,2.449.163.163,0,0,1-.2.127,9.8,9.8,0,0,1-1.81-.653.426.426,0,0,0-.571.215.444.444,0,0,0,.21.584,10.654,10.654,0,0,0,1.968.709,1.023,1.023,0,0,0,1.241-.8,8.962,8.962,0,0,0,.13-2.171,6.8,6.8,0,0,0,4.5-.916,1.049,1.049,0,0,0,.477-.981A7.327,7.327,0,0,0,311.857,19.668Z" transform="translate(-302.586 0)" fill="#bd8893" stroke="#bd8893" stroke-width="0.6"/>
      </g>
    </g>
    <path id="Path_2710" data-name="Path 2710" d="M40.084,127.778a28.776,28.776,0,0,0-4.5-1.82l1.111-.929a.43.43,0,1,0-.552-.66l-1.554,1.3a18.962,18.962,0,0,0-4.979-.712c1.4-1.386,2.881-2.792,4.5-4.253l2.627.122a.43.43,0,0,0,.02-.859l-1.734-.081c2.959-2.632,5.1-4.325,5.125-4.346a.43.43,0,0,0-.533-.675c-.018.014-.934.739-2.389,1.971l-.088-1.119a.43.43,0,0,0-.857.068,14.216,14.216,0,0,0,.152,1.728c-1.052.9-2.3,2-3.657,3.245l-.118-1.383a.43.43,0,1,0-.857.073l.174,2.049q-1.375,1.28-2.733,2.619a19.594,19.594,0,0,0-.708-4.5l1.3-1.555a.43.43,0,1,0-.66-.552l-.929,1.111a28.774,28.774,0,0,0-1.82-4.5.43.43,0,0,0-.76.4,28.454,28.454,0,0,1,2.413,6.968l-1.132-.62a.43.43,0,1,0-.413.754c1.706.93,1.627.9,1.718.929a14.327,14.327,0,0,1,.126,2.422q-.494.5-.995,1.014a15.581,15.581,0,0,0-3.005-.944.43.43,0,1,0-.168.843,14.676,14.676,0,0,1,2.534.767c-.681.715-1.365,1.453-2.039,2.207-4.935-.455-4.692-.384-4.773-.466a.163.163,0,0,1,.021-.248,4.632,4.632,0,0,0,1.229-1.805,5.8,5.8,0,0,0-.825-5.2.162.162,0,0,1-.008-.156c.074-.152.087-.058,2.631-.382a.43.43,0,0,0,.246-.739,16.835,16.835,0,0,1-2.255-2.608.43.43,0,0,0-.707.49,17.224,17.224,0,0,0,1.731,2.107l-1.617.188a1.023,1.023,0,0,0-.754,1.55,4.989,4.989,0,0,1,.754,4.451,3.785,3.785,0,0,1-.948,1.428,1.025,1.025,0,0,0,.528,1.835l4.04.361a57.534,57.534,0,0,0-4.9,6.384.43.43,0,0,0,.36.664c.612,0,.37-.935,5.1-6.375l.349,3.911a1.023,1.023,0,0,0,1.816.549c.085-.1,2.122-2.53,5.9-.215a1.023,1.023,0,0,0,1.55-.754l.188-1.617a17.02,17.02,0,0,0,2.319,1.875.43.43,0,1,0,.477-.715,16.667,16.667,0,0,1-2.808-2.391.43.43,0,0,0-.739.246c-.33,2.589-.236,2.559-.382,2.631a.162.162,0,0,1-.156-.008c-4.41-2.7-6.909.278-7.016.41a.163.163,0,0,1-.174.055c-.2-.06-.066-.042-.537-4.865.693-.775,1.4-1.533,2.1-2.267a14.837,14.837,0,0,1,.883,2.813.43.43,0,1,0,.843-.168,15.506,15.506,0,0,0-1.082-3.315q.327-.337.651-.665a14.86,14.86,0,0,1,2.922.106.436.436,0,0,0,.035.086l.894,1.632a.43.43,0,1,0,.754-.413l-.62-1.132a28.461,28.461,0,0,1,6.968,2.413.43.43,0,0,0,.4-.76Z" transform="translate(-18.375 -106.712)" fill="#bd8893" stroke="#bd8893" stroke-width="0.6"/>
  </g>
</svg>
