<svg xmlns="http://www.w3.org/2000/svg" width="30.008" height="30" viewBox="0 0 30.008 30">
  <path id="Path_2697" data-name="Path 2697" d="M7.524,20.978,6.69,24.337l7.434-1.208v6.938h1.758V23.128l7.434,1.208-.834-3.359,7.524-5.851L27.353,13.86l1.683-5.233L24.17,9.77l-.258-3.049-3.918,3.572,1.139-7.159L17.788,4.309,15,.066,12.22,4.309,8.875,3.134l1.139,7.159L6.1,6.722,5.838,9.77.972,8.628,2.655,13.86,0,15.128ZM3.6,11.05l3.82.9.129-1.523,4.991,4.551-1.464-9.2,1.86.653L15,3.271l2.069,3.153,1.86-.654-1.464,9.2,4.991-4.551.129,1.523,3.82-.9-1.2,3.735,1.472.7-6.179,4.8.467,1.881L15,21.2l-5.964.97.467-1.881-6.179-4.8,1.472-.7Z" transform="translate(0 -0.066)" fill="#bd8893"/>
</svg>
