<svg xmlns="http://www.w3.org/2000/svg" xmlns:xlink="http://www.w3.org/1999/xlink" width="80.372" height="80" viewBox="0 0 80.372 80">
  <defs>
    <clipPath id="clip-path">
      <rect id="Rectangle_1624" data-name="Rectangle 1624" width="80.372" height="80" fill="#bd8893" stroke="#bd8893" stroke-width="1"/>
    </clipPath>
  </defs>
  <g id="Group_3243" data-name="Group 3243" clip-path="url(#clip-path)">
    <path id="Path_2848" data-name="Path 2848" d="M392.773,259.763c1.346,0,4.313-2.29,5.311-4.632.656,11.041-1.272,16.289-1.942,18.739l-.426,2.335c6.118-.137,5.641-2.735,10.151-3.943l.922,4.653c5.884,1.409,10.212-2.582,15.737-3.871-.675,2.529-3.645,5.7-4.932,8.2l2.059,3.543a14.055,14.055,0,0,0-8.319,6.446l2.477,2.377c-3.012,0-6.093-.773-8.6.472,1.093,4.694,2.015,3.848,3.44,7.172-.43-.228-5.043-2.618-5.089-2.618-5.061,0-8.224,4.3-13.738,3.16-5.153-5.466-9.135-15.5-6.315-27.251-5.7,16.225,3.388,20.6,3.233,34.684-.873,3.475-3.258,4.738-3.81,6.7a12.245,12.245,0,0,0,4.937-4.784c1.509-2.866,1.023-6.39,2.759-6.659,5.649.142,8.13-2.8,12.181-3.373,2.623,0,4.541,3.084,8.858,3.444-.542-4.933-2.234-4.142-3.369-8.4,3.912-.114,8.347.073,11.378-1.927-2.252-.542-2.88-.747-5.394-3.026,1.521-2.078,6.672-5,9.07-6.606-.615-.92-2.686-2.847-2.686-3.373,0-3.489,5.848-7.885,6.809-11.487-7.545.167-9.8,4.953-18.965,4.953a26.77,26.77,0,0,1-.825-6.605c-4.388,1.174-5.506,4.606-9.895,5.78,2.251-6.142,2.924-13.877,1.65-22.291-2.315.839-7.583,10.856-8.858,1.65-.637-5.465-.524-14.858-6.809-17.338C389.887,240.162,386.4,259.479,392.773,259.763Z" transform="translate(-347.24 -235.89)" fill="#bd8893" stroke="#bd8893" stroke-width="1" fill-rule="evenodd"/>
    <path id="Path_2849" data-name="Path 2849" d="M336.57,271.069l-6.125-1.181.142,5.779c0,3.42,5.925,12.442,2.715,13.84l-2.316.2c3.624,1.165,4.426-.4,3.8-3.111-1.243-5.373-4.58-8.836-3.727-16.119,1.383-.073,3.391,1.189,6.408,1.137,4.755-1.6,4.315-9.192,5.347-13.574C340.953,259.111,342.385,271.069,336.57,271.069Z" transform="translate(-308.753 -252.55)" fill="#bd8893" stroke="#bd8893" stroke-width="1" fill-rule="evenodd"/>
    <path id="Path_2850" data-name="Path 2850" d="M252.342,389.363c3.17,1.428,10.461,3.764,10.461,7.327a9.628,9.628,0,0,1-.41,3.748c3.2-1.111,5.091-1.257,7.772.5-1.892-2.55-5.826-1.482-7.2-1.032,1.7-8.281-6.706-8.808-10.684-10.967-1.87-1.635-3.972-3.27-5.47-4.8,1.334-1.707,6.571-4.293,6.712-6.769,0-2.748-2.835-5.614-4.636-6.792-1.185-.766-2.947-2.34-4.191-3.185.645-.137,13.033,2.775,12.631-2.017a4.756,4.756,0,0,0-1.51-2.82c1.7,3.1,2.218,5.374-4.387,5.225l-7.931-.909,1.814,1.487c3.285,2.427,7.906,5.256,7.906,9.836-.487,2.137-6.124,5.34-6.725,5.866C246.6,385.248,251.661,388.8,252.342,389.363Z" transform="translate(-243.375 -331.136)" fill="#bd8893" stroke="#bd8893" stroke-width="1" fill-rule="evenodd"/>
  </g>
</svg>
