<svg id="Group_3246" data-name="Group 3246" xmlns="http://www.w3.org/2000/svg" width="22.852" height="29" viewBox="0 0 22.852 29">
  <g id="Group_3204" data-name="Group 3204">
    <g id="Group_3203" data-name="Group 3203" transform="translate(0)">
      <path id="Path_2695" data-name="Path 2695" d="M72.426,0A11.253,11.253,0,0,0,61,11.045c0,3.932,1.237,5.508,7.182,13.084,1.032,1.315,2.2,2.806,3.54,4.531a.9.9,0,0,0,1.406,0c1.331-1.716,2.5-3.2,3.523-4.511,5.96-7.6,7.2-9.18,7.2-13.1A11.253,11.253,0,0,0,72.426,0Zm2.825,23.123c-.844,1.076-1.78,2.27-2.826,3.613-1.052-1.352-1.994-2.552-2.843-3.633-5.783-7.37-6.825-8.7-6.825-12.057a9.674,9.674,0,0,1,19.336,0C82.094,14.4,81.049,15.73,75.251,23.123Z" transform="translate(-61)" fill="#bd8893"/>
    </g>
  </g>
  <path id="Path_2696" data-name="Path 2696" d="M157.152,90a6.152,6.152,0,1,0,6.152,6.152A6.159,6.159,0,0,0,157.152,90Zm0,10.547a4.395,4.395,0,1,1,4.395-4.395A4.4,4.4,0,0,1,157.152,100.547Z" transform="translate(-145.727 -85.024)" fill="#bd8893"/>
</svg>
