<svg xmlns="http://www.w3.org/2000/svg" width="16.8" height="18.3" viewBox="0 0 16.8 18.3">
  <g id="Group_3248" data-name="Group 3248" transform="translate(0.15 0.15)">
    <path id="Path_2696" data-name="Path 2696" d="M32.881,60.469a.75.75,0,0,0-.6,1.375,6.749,6.749,0,1,1-5.4,0,.75.75,0,0,0-.6-1.374,8.251,8.251,0,1,0,6.6,0Z" transform="translate(-21.331 -58.283)" stroke="#000" stroke-width="0.3"/>
    <path id="Path_2697" data-name="Path 2697" d="M235.406,8.247a.75.75,0,0,0,.75-.75V.75a.75.75,0,1,0-1.5,0V7.5A.75.75,0,0,0,235.406,8.247Z" transform="translate(-227.156)" stroke="#000" stroke-width="0.3"/>
  </g>
</svg>
